#!OML:ASF F:\VICON\USERDATA\INSTALL\Justin_Nancy\Justin_Nancy.ASF
:FULLY-SPECIFIED
:DEGREES
111
root 7.24442 16.961 -6.06844 5.16145 -40.8835 -1.92704
lowerback 7.22022 1.43128 3.22551
upperback -0.266484 2.27443 2.51142
thorax -4.3056 1.07494 0.547851
lowerneck -19.3382 -4.06417 -8.04128
upperneck 23.8479 -4.61897 4.87291
head 11.2566 -2.2533 2.41175
rclavicle 1.17283e-014 -2.46493e-014
rhumerus -35.6394 -12.6284 -73.6497
rradius 45.0271
rwrist 2.94859
rhand -15.1177 12.2483
rfingers 7.12502
rthumb 11.0512 -17.4408
lclavicle 1.17283e-014 -2.46493e-014
lhumerus -34.2826 20.8048 78.0071
lradius 21.2263
lwrist -17.4776
lhand -12.3419 28.5936
lfingers 7.12502
lthumb 13.7275 58.1208
rfemur 16.8742 8.37359 30.5718
rtibia 22.22
rfoot -2.96107 9.05672
rtoes -0.140267
lfemur -35.9982 -3.3397 -11.6117
ltibia 29.2283
lfoot -5.96086 1.04163
ltoes -15.5334
112
root 7.1229 16.9853 -5.83382 4.31514 -41.0044 -0.822138
lowerback 7.49028 1.46392 2.0434
upperback -0.508661 2.23731 2.44598
thorax -4.75244 1.08041 1.13545
lowerneck -19.9744 -4.15464 -7.90068
upperneck 24.888 -4.68422 4.50672
head 11.7689 -2.31807 2.24474
rclavicle 8.44835e-015 3.97569e-015
rhumerus -36.2998 -12.9787 -73.204
rradius 44.2046
rwrist 3.25147
rhand -15.3537 12.4169
rfingers 7.12502
rthumb 10.8236 -17.2842
lclavicle 8.44835e-015 3.97569e-015
lhumerus -34.8171 21.2743 77.7382
lradius 21.1605
lwrist -17.8898
lhand -11.8342 28.2864
lfingers 7.12502
lthumb 14.2167 57.7798
rfemur 15.01 8.35314 29.2461
rtibia 26.5375
rfoot 0.741887 10.0097
rtoes 0.918563
lfemur -35.3409 -2.86941 -13.0021
ltibia 30.0317
lfoot -6.2408 -0.593533
ltoes -15.2101
113
root 7.00319 17.0087 -5.6001 3.74215 -41.0159 -0.178843
lowerback 7.43453 1.47861 1.53108
upperback -0.436115 2.20191 2.3008
thorax -4.65803 1.07546 1.27789
lowerneck -20.2367 -4.24994 -8.0749
upperneck 25.0502 -4.80681 4.71624
head 11.9035 -2.36011 2.33115
rclavicle 2.08724e-015 4.77083e-015
rhumerus -36.5243 -14.0474 -72.964
rradius 43.244
rwrist 3.98745
rhand -15.7291 12.6039
rfingers 7.12502
rthumb 10.4615 -17.1158
lclavicle 2.08724e-015 4.77083e-015
lhumerus -34.7719 21.9917 77.3845
lradius 21.1261
lwrist -18.3354
lhand -10.876 29.4867
lfingers 7.12502
lthumb 15.14 58.9129
rfemur 13.0371 8.41439 28.3676
rtibia 30.7983
rfoot 5.39397 10.6412
rtoes 3.4685
lfemur -34.8006 -2.96424 -13.6757
ltibia 30.6101
lfoot -5.32159 -0.959385
ltoes -11.5701
114
root 6.8865 17.0285 -5.37139 3.17751 -41.0538 0.18315
lowerback 7.48023 1.49524 1.34423
upperback -0.216444 2.1952 2.13686
thorax -4.4549 1.07574 1.21456
lowerneck -20.3866 -4.3427 -8.16873
upperneck 24.8678 -4.94714 4.93493
head 11.8821 -2.39853 2.40237
rclavicle 5.1684e-015 2.8625e-014
rhumerus -36.6719 -14.9675 -72.9781
rradius 42.4956
rwrist 4.39565
rhand -16.2013 12.3984
rfingers 7.12502
rthumb 10.006 -17.3437
lclavicle 5.1684e-015 2.8625e-014
lhumerus -34.7527 22.5513 77.0935
lradius 21.2633
lwrist -18.9628
lhand -11.0569 29.5995
lfingers 7.12502
lthumb 14.9657 59.0388
rfemur 11.1611 8.46376 27.7502
rtibia 34.9553
rfoot 10.0052 11.5831
rtoes 4.98394
lfemur -33.9394 -3.14052 -14.055
ltibia 30.9903
lfoot -4.001 -0.848902
ltoes -7.6586
115
root 6.7698 17.0654 -5.14221 2.67759 -41.2008 0.778469
lowerback 7.32049 1.48141 0.978809
upperback -0.0844614 2.12972 1.92667
thorax -4.23165 1.05053 1.21441
lowerneck -20.5104 -4.35605 -8.20559
upperneck 24.6986 -4.97287 5.07318
head 11.848 -2.39155 2.45324
rclavicle -1.72943e-014 7.95139e-016
rhumerus -36.8552 -15.7683 -72.9927
rradius 41.7045
rwrist 4.8271
rhand -16.1873 12.4931
rfingers 7.12502
rthumb 10.0195 -17.2484
lclavicle -1.72943e-014 7.95139e-016
lhumerus -34.7674 23.1329 76.6865
lradius 21.1914
lwrist -19.3338
lhand -11.7225 29.1753
lfingers 7.12502
lthumb 14.3244 58.6612
rfemur 8.9757 8.45169 26.7945
rtibia 39.0301
rfoot 13.4338 13.0502
rtoes 6.80059
lfemur -33.2046 -2.83864 -14.8289
ltibia 31.3791
lfoot -3.47621 -1.56483
ltoes -6.24654
